<?xml version="1.0" encoding="UTF-8"?>
<svg width="512px" height="512px" viewBox="0 0 512 512" version="1.1" xmlns="http://www.w3.org/2000/svg" xmlns:xlink="http://www.w3.org/1999/xlink">
    <!-- Generator: Sketch 53.2 (72643) - https://sketchapp.com -->
    <title>Artboard</title>
    <desc>Created with Sketch.</desc>
    <g id="Artboard" stroke="none" stroke-width="1" fill="none" fill-rule="evenodd">
        <g id="Group" transform="translate(-1.472484, 6.365373)">
            <path d="M53.8953366,1 L53.8953366,501.890998 L281.788603,501.890998 C387.556398,504.386751 446.864772,465.649163 459.713724,385.678236 C468.944423,294.982497 433.565427,242.365813 353.576738,227.828185 C423.008458,208.221168 450.435229,164.141181 435.85705,95.5882258 C422.447232,32.5294086 371.091083,1 281.788603,1 L53.8953366,1 Z" id="Path" fill="#8ED300"></path>
            <path d="M81.6292235,358.771615 C249.870188,363.406689 328.559869,272.629589 328.559869,202.489426 C328.559869,132.349263 253.349366,47.2829429 118.636264,56.0574576 C91.2363344,57.8421473 65.17718,61.8738842 27.0578508,78.0262404 C27.0578508,78.0262404 81.6292235,358.771615 81.6292235,358.771615 Z" id="Oval" fill="#54C247" transform="translate(177.808860, 207.186359) rotate(11.000000) translate(-177.808860, -207.186359) "></path>
            <path d="M53.4724838,502.634627 L257.972484,502.634627 C280.972484,429.96796 269.805817,358.634627 224.472484,288.634627 C182.509882,225.96796 125.509882,188.301294 53.4724838,175.634627 L53.4724838,502.634627 Z" id="Path-2" fill-opacity="0.57" fill="#FFFFFF"></path>
            <path d="M54.4724838,0.634627016 L54.4724838,96.634627 C64.4724838,112.634627 88.1391505,128.634627 125.472484,144.634627 C194.469876,174.204938 258.495466,174.217044 313.472484,144.634627 C359.514713,110.434873 359.863965,64.3245455 317.472484,19.634627 C312.178754,14.0538748 303.178754,7.7205415 290.472484,0.634627016 L54.4724838,0.634627016 Z" id="Path-3" fill-opacity="0.38" fill="#FFFFFF"></path>
            <path d="M151.472484,505.634627 L151.472484,75.634627 L253.472484,75.634627 C300.805817,75.634627 324.472484,94.3012937 324.472484,131.634627 C324.472484,168.96796 300.805817,188.301294 253.472484,189.634627 L151.472484,189.634627" id="Path-4" stroke="#FFFFFF" stroke-width="19"></path>
        </g>
    </g>
</svg>