<?xml version="1.0" encoding="UTF-8"?>
<svg width="512px" height="512px" viewBox="0 0 512 512" version="1.1" xmlns="http://www.w3.org/2000/svg" xmlns:xlink="http://www.w3.org/1999/xlink">
    <!-- Generator: Sketch 53.2 (72643) - https://sketchapp.com -->
    <title>Artboard</title>
    <desc>Created with Sketch.</desc>
    <g id="Artboard" stroke="none" stroke-width="1" fill="none" fill-rule="evenodd">
        <g id="Group" transform="translate(72.000000, 18.016260)">
            <g id="B" transform="translate(0.000000, 0.983740)">
                <path d="M362.596517,401.294922 C343.215476,437.513231 306.587259,458.652 252.711864,464.71123 L252.711864,401.294922 L362.596517,401.294922 Z" id="Combined-Shape" fill="#B1CE61"></path>
                <path d="M362.596517,401.294922 C343.215476,437.513231 306.587259,458.652 252.711864,464.71123 L252.711864,401.294922 L362.596517,401.294922 Z" id="Combined-Shape" fill="#B1CE61"></path>
                <path d="M353.48894,149.517923 L252.711864,149.517923 L252.711864,3.37955704 C309.355119,12.1408406 343.139784,42.3440667 354.065861,93.9892351 C358.508319,114.987761 358.316012,133.497323 353.48894,149.517923 Z" id="Combined-Shape" fill="#B1CE61"></path>
                <path d="M252.711864,464.71123 C243.525955,465.744346 233.838648,466.339081 223.649945,466.495436 L85.9220339,466.498247 L85.9220339,401.294922 L252.711864,401.294922 L252.711864,464.71123 Z" id="Combined-Shape" fill="#6EB74D"></path>
                <path d="M85.9220339,0.817413195 L223.649945,0.817413195 C233.926923,1.11833427 243.614229,1.97238222 252.711864,3.37955704 L252.711864,149.517923 L85.9220339,149.517923 L85.9220339,0.817413195 Z" id="Combined-Shape" fill="#92C778"></path>
                <path d="M353.48894,149.517923 C344.537192,179.227938 319.645898,200.378093 278.815059,212.968387 C323.144966,221.414513 352.593521,242.508821 367.160723,276.251312 L252.711864,276.251312 L252.711864,149.517923 L353.48894,149.517923 Z" id="Combined-Shape" fill="#93C121"></path>
                <path d="M367.160723,276.251312 C376.383535,297.614417 379.641259,324.047459 376.933895,355.55044 C374.457727,372.812121 369.678601,388.060282 362.596517,401.294922 L252.711864,401.294922 L252.711864,276.251312 L367.160723,276.251312 Z" id="Combined-Shape" fill="#6EB74D"></path>
                <path d="M0,0.817413195 L85.9220339,0.817413195 L85.9220339,149.517923 L0,149.517923 L0,0.817413195 Z" id="Combined-Shape" fill="#B7D9A4"></path>
                <path d="M0,149.517923 L85.9220339,149.517923 L85.9220339,276.251312 L0,276.251312 L0,149.517923 Z" id="Combined-Shape" fill="#92C778"></path>
                <path d="M85.9220339,149.517923 L252.711864,149.517923 L252.711864,276.251312 L85.9220339,276.251312 L85.9220339,149.517923 Z" id="Combined-Shape" fill="#B1CE61"></path>
                <path d="M85.9220339,466.498247 L1.42108547e-14,466.5 L0,401.294922 L85.9220339,401.294922 L85.9220339,466.498247 Z" id="Combined-Shape" fill="#93C121"></path>
                <path d="M85.9220339,276.251312 L252.711864,276.251312 L252.711864,401.294922 L85.9220339,401.294922 L85.9220339,276.251312 Z" id="Combined-Shape" fill="#93C121"></path>
                <path d="M0,276.251312 L85.9220339,276.251312 L85.9220339,401.294922 L0,401.294922 L0,276.251312 Z" id="Combined-Shape" fill="#B1CE61"></path>
            </g>
            <polygon id="Path-2" fill="#FFFFFF" points="70 466.98374 70 63.9837398 92.1941378 63.9837398 155.016197 234.277215 218.112603 63.9837398 241 63.9837398 241 466.98374 225.267023 466.98374 225.267023 92.38764 161.597636 262.004659 149.202817 262.004659 85.4454754 92.38764 85.4454754 466.98374"></polygon>
        </g>
    </g>
</svg>